<svg fill="none" height="48" viewBox="0 0 48 48" width="48" xmlns="http://www.w3.org/2000/svg"><path d="m0 0h48v48h-48z" fill="#000"/><g clip-rule="evenodd" fill="#fff" fill-rule="evenodd"><path d="m28 31c6.0751 0 11-4.9249 11-11v-1.4215c-.0006-.0009-.0018-.0028-.0041-.0051-.0081-.0084-.0212-.0155-.0382-.0166-2.6954-.1718-5.0348-.8163-6.7389-2.373-1.7225-1.5734-2.6289-3.923-2.7918-7.13212-.001-.01992-.0095-.03638-.0199-.04664-.0027-.00273-.0049-.00427-.0061-.00504h-1.401c-6.0751 0-11 4.9249-11 11s4.9249 11 11 11zm12-11c0 6.6274-5.3726 12-12 12s-12-5.3726-12-12 5.3726-12 12-12h1.4022c.5514 0 .9956.45024 1.0235 1.00099.3099 6.10571 3.4049 8.22701 8.5956 8.55781.5427.0346.9787.4757.9787 1.0194z"/><path d="m30.8501 31.5877c-1.573 4.3241-5.7196 7.4123-10.5874 7.4123-6.2202 0-11.2627-5.0425-11.2627-11.2627 0-4.8678 3.0882-9.0144 7.4123-10.5873.0779-.3904.1743-.774.2882-1.15-5.0352 1.5261-8.7005 6.2037-8.7005 11.7373 0 6.7725 5.4902 12.2627 12.2627 12.2627 5.5336 0 10.2112-3.6653 11.7373-8.7005-.376.1139-.7596.2103-1.1499.2882z"/></g></svg>