<svg width="48" height="48" viewBox="0 0 48 48" fill="none" xmlns="http://www.w3.org/2000/svg">
<path d="M48 24C48 37.2548 37.2548 48 24 48C10.7452 48 0 37.2548 0 24C0 10.7452 10.7452 0 24 0C37.2548 0 48 10.7452 48 24Z" fill="black"/>
<path fill-rule="evenodd" clip-rule="evenodd" d="M28 29.5C33.2467 29.5 37.5 25.2467 37.5 20V19.9238C35.1525 19.6189 32.9428 18.8768 31.2071 17.2913C29.3814 15.6235 28.3946 13.3162 28.0467 10.5H28C22.7533 10.5 18.5 14.7533 18.5 20C18.5 25.2467 22.7533 29.5 28 29.5ZM40 20C40 26.6274 34.6274 32 28 32C21.3726 32 16 26.6274 16 20C16 13.3726 21.3726 8 28 8H29.4022C29.9536 8 30.3978 8.45024 30.4257 9.00099C30.7356 15.1067 33.8306 17.228 39.0213 17.5588C39.564 17.5934 40 18.0345 40 18.5782V20Z" fill="white"/>
<path fill-rule="evenodd" clip-rule="evenodd" d="M29.1402 31.8051C27.5977 35.1659 24.2028 37.5 20.2627 37.5C14.8709 37.5 10.5 33.1291 10.5 27.7373C10.5 23.7972 12.834 20.4023 16.1949 18.8598C16.2508 17.8706 16.4239 16.9128 16.7005 16C11.6653 17.5261 8 22.2037 8 27.7373C8 34.5098 13.4902 40 20.2627 40C25.7963 40 30.4739 36.3347 32 31.2995C31.0872 31.5761 30.1294 31.7492 29.1402 31.8051Z" fill="white"/>
</svg>
