<svg width="48" height="48" viewBox="0 0 48 48" fill="none" xmlns="http://www.w3.org/2000/svg">
<path d="M48 24C48 37.2548 37.2548 48 24 48C10.7452 48 0 37.2548 0 24C0 10.7452 10.7452 0 24 0C37.2548 0 48 10.7452 48 24Z" fill="black"/>
<path fill-rule="evenodd" clip-rule="evenodd" d="M28 31C34.0751 31 39 26.0751 39 20V18.5785C38.9994 18.5776 38.9982 18.5757 38.9959 18.5734C38.9878 18.565 38.9747 18.5579 38.9577 18.5568C36.2623 18.385 33.9229 17.7405 32.2188 16.1838C30.4963 14.6104 29.5899 12.2608 29.427 9.05168C29.426 9.03176 29.4175 9.0153 29.4071 9.00504C29.4044 9.00231 29.4022 9.00077 29.401 9H28C21.9249 9 17 13.9249 17 20C17 26.0751 21.9249 31 28 31ZM40 20C40 26.6274 34.6274 32 28 32C21.3726 32 16 26.6274 16 20C16 13.3726 21.3726 8 28 8H29.4022C29.9536 8 30.3978 8.45024 30.4257 9.00099C30.7356 15.1067 33.8306 17.228 39.0213 17.5588C39.564 17.5934 40 18.0345 40 18.5782V20Z" fill="white"/>
<path fill-rule="evenodd" clip-rule="evenodd" d="M30.8501 31.5877C29.2771 35.9118 25.1305 39 20.2627 39C14.0425 39 9 33.9575 9 27.7373C9 22.8695 12.0882 18.7229 16.4123 17.15C16.4902 16.7596 16.5866 16.376 16.7005 16C11.6653 17.5261 8 22.2037 8 27.7373C8 34.5098 13.4902 40 20.2627 40C25.7963 40 30.4739 36.3347 32 31.2995C31.624 31.4134 31.2404 31.5098 30.8501 31.5877Z" fill="white"/>
</svg>
