<svg width="48" height="48" viewBox="0 0 48 48" fill="none" xmlns="http://www.w3.org/2000/svg">
<path fill-rule="evenodd" clip-rule="evenodd" d="M43.9996 18.1044C43.9435 25.7883 37.6971 32 30 32C22.268 32 16 25.732 16 18C16 10.318 22.1873 4.08103 29.8504 4.00078C30.403 8.18094 31.9034 11.6325 34.6669 14.1441C37.2596 16.5006 40.5322 17.6262 43.9996 18.1044ZM48 18C48 27.9411 39.9411 36 30 36C20.0589 36 12 27.9411 12 18C12 8.05888 20.0589 0 30 0H32.6026C33.154 0 33.599 0.44666 33.6174 0.997811C33.9427 10.7385 38.797 13.9645 47.0208 14.3657C47.5639 14.3922 48 14.834 48 15.3777V18Z" fill="black"/>
<path fill-rule="evenodd" clip-rule="evenodd" d="M31.4281 35.7214C29.129 40.6132 24.157 44 18.394 44C10.4444 44 4 37.5555 4 29.6059C4 23.843 7.38678 18.871 12.2786 16.5718C12.3439 14.988 12.6095 13.4558 13.0508 12C5.49793 14.2892 0 21.3055 0 29.6059C0 39.7647 8.23529 48 18.394 48C26.6945 48 33.7108 42.5021 36 34.9492C34.5442 35.3905 33.012 35.6561 31.4281 35.7214Z" fill="black"/>
</svg>
